<?xml version="1.0" encoding="UTF-8" standalone="no"?>
<svg
   height="24"
   width="24"
   version="1.1"
   id="svg24"
   sodipodi:docname="icon.svg"
   inkscape:version="1.2.2 (b0a8486, 2022-12-01)"
   xmlns:inkscape="http://www.inkscape.org/namespaces/inkscape"
   xmlns:sodipodi="http://sodipodi.sourceforge.net/DTD/sodipodi-0.dtd"
   xmlns="http://www.w3.org/2000/svg"
   xmlns:svg="http://www.w3.org/2000/svg"
   xmlns:rdf="http://www.w3.org/1999/02/22-rdf-syntax-ns#"
   xmlns:cc="http://creativecommons.org/ns#">
  <defs
     id="defs28" />
  <sodipodi:namedview
     id="namedview26"
     pagecolor="#ffffff"
     bordercolor="#000000"
     borderopacity="0.25"
     inkscape:showpageshadow="2"
     inkscape:pageopacity="0.0"
     inkscape:pagecheckerboard="true"
     inkscape:deskcolor="#d1d1d1"
     showgrid="true"
     inkscape:zoom="32"
     inkscape:cx="8.5625"
     inkscape:cy="11.34375"
     inkscape:window-width="1691"
     inkscape:window-height="1053"
     inkscape:window-x="228"
     inkscape:window-y="0"
     inkscape:window-maximized="1"
     inkscape:current-layer="svg24">
    <inkscape:grid
       type="xygrid"
       id="grid257"
       originx="2"
       originy="2"
       empspacing="10" />
    <inkscape:grid
       type="xygrid"
       id="grid313"
       originx="2"
       originy="2"
       spacingx="0.16666667"
       spacingy="0.16666667"
       dotted="true"
       empspacing="120" />
  </sodipodi:namedview>
  <path
     id="rect311"
     style="fill:#eaf4f1;stroke:#7bbdaf;stroke-linecap:round;stroke-opacity:1;paint-order:fill markers stroke"
     d="M 6.5000001,2.5 H 17.5 c 2.333334,0 4,1.6666667 4,4 v 11 c 0,2.333334 -1.666666,4 -4,4 H 6.5000001 C 4.1666667,21.5 2.5,19.833334 2.5,17.5 v -11 c 0,-2.3333333 1.6666667,-4 4.0000001,-4 z"
     sodipodi:nodetypes="zzzzzzzzz"
     inkscape:label="background" />
  <text
     xml:space="preserve"
     style="font-weight:800;font-size:6px;font-family:'Open Sans';-inkscape-font-specification:'Open Sans Ultra-Bold';text-align:center;text-anchor:middle;display:none;fill:#131918;fill-opacity:1;stroke:none;stroke-width:1;stroke-linecap:round;stroke-dasharray:none;stroke-opacity:1;paint-order:fill markers stroke"
     x="12"
     y="14"
     id="text1074"
     inkscape:label="text"><tspan
       sodipodi:role="line"
       id="tspan1072"
       x="12"
       y="14"
       style="font-style:normal;font-variant:normal;font-weight:bold;font-stretch:normal;font-size:6px;font-family:'Open Sans';-inkscape-font-specification:'Open Sans Bold';text-align:center;text-anchor:middle;fill:#131918;fill-opacity:1;stroke:none">DARS</tspan></text>
  <path
     id="path1308"
     style="font-weight:bold;font-size:6px;font-family:'Open Sans';-inkscape-font-specification:'Open Sans Bold';text-align:center;text-anchor:middle;display:inline;fill:#131918;stroke-linecap:round;paint-order:fill markers stroke"
     d="m 18.394531,9.6542969 c -0.453125,0 -0.808594,0.1093751 -1.066406,0.3261719 -0.255859,0.2167962 -0.384766,0.5136722 -0.384766,0.8925782 0,0.201172 0.03906,0.376953 0.117188,0.527344 0.07813,0.15039 0.183594,0.283203 0.314453,0.396484 0.130859,0.113281 0.326172,0.230469 0.587891,0.353516 0.279296,0.132812 0.464843,0.230469 0.554687,0.291015 0.0918,0.06055 0.160158,0.123047 0.207031,0.189453 0.04687,0.06445 0.07031,0.138673 0.07031,0.222657 0,0.15039 -0.05273,0.263671 -0.160156,0.339843 -0.105469,0.07617 -0.257813,0.115235 -0.457032,0.115235 -0.166015,0 -0.349609,-0.02734 -0.550781,-0.08008 -0.199218,-0.05273 -0.443359,-0.142578 -0.732422,-0.271485 v 0.84375 c 0.351563,0.171875 0.75586,0.257813 1.212891,0.257813 0.496093,0 0.882812,-0.111328 1.160156,-0.333985 0.279297,-0.222655 0.417969,-0.527344 0.417969,-0.914062 0,-0.279297 -0.07422,-0.513672 -0.222656,-0.705078 -0.148438,-0.193359 -0.421876,-0.386719 -0.822266,-0.578125 -0.302734,-0.144532 -0.496094,-0.244142 -0.578125,-0.298828 -0.08008,-0.05664 -0.138675,-0.113282 -0.175781,-0.171875 -0.03711,-0.06055 -0.05469,-0.13086 -0.05469,-0.210938 0,-0.128906 0.04492,-0.234375 0.136719,-0.314453 0.0918,-0.08008 0.22461,-0.119141 0.396484,-0.119141 0.144532,0 0.291016,0.01758 0.439454,0.05469 0.15039,0.03711 0.339843,0.101562 0.568359,0.195312 L 19.666016,9.9570312 C 19.445313,9.8613285 19.232422,9.7871096 19.029297,9.734375 18.828125,9.6816404 18.617187,9.6542969 18.394531,9.6542969 Z M 10.029297,9.6992188 8.5175781,14 H 9.4960938 L 9.8066406,12.980469 H 11.369141 L 11.679688,14 h 0.978515 L 11.140625,9.6992188 Z M 4.6152344,9.7167969 V 14 H 5.828125 c 0.7578117,0 1.337891,-0.1875 1.7382812,-0.5625 0.4023434,-0.375 0.6035157,-0.914063 0.6035157,-1.619141 0,-0.662108 -0.1933598,-1.177734 -0.5800781,-1.546875 C 7.2031253,9.902344 6.6601555,9.7167969 5.9609375,9.7167969 Z m 8.5820316,0 V 14 h 0.908203 v -1.644531 h 0.482422 L 15.611328,14 h 1.007813 c -0.195312,-0.28125 -0.615235,-0.904298 -1.259766,-1.867188 0.253906,-0.111327 0.449219,-0.263671 0.587891,-0.458984 C 16.085937,11.476563 16.15625,11.251953 16.15625,11 c 0,-0.43164 -0.140625,-0.751954 -0.419922,-0.962891 C 15.457032,9.8242189 15.027343,9.7167969 14.445312,9.7167969 Z m -2.607422,0.6484371 c 0.01563,0.07031 0.04102,0.164063 0.07617,0.285157 0.03711,0.121094 0.199219,0.644532 0.486328,1.568359 h -1.117188 c 0.304687,-0.986327 0.490234,-1.603516 0.554688,-1.853516 z m -5.0664065,0.0957 h 0.484375 c 0.8124992,-10e-7 1.21875,0.460938 1.21875,1.380859 0,0.939452 -0.4375009,1.408203 -1.3125,1.408203 h -0.390625 z m 8.5820315,0 h 0.27539 c 0.292969,0 0.507813,0.04297 0.646485,0.128906 0.140625,0.08594 0.210937,0.230468 0.210937,0.433594 0,0.205077 -0.06836,0.355469 -0.205078,0.451171 -0.136718,0.0957 -0.347656,0.142579 -0.634765,0.142579 h -0.292969 z"
     inkscape:label="text rendered" />
  <metadata
     id="metadata382">
    <rdf:RDF>
      <cc:Work
         rdf:about="">
        <cc:license
           rdf:resource="http://creativecommons.org/publicdomain/zero/1.0/" />
      </cc:Work>
      <cc:License
         rdf:about="http://creativecommons.org/publicdomain/zero/1.0/">
        <cc:permits
           rdf:resource="http://creativecommons.org/ns#Reproduction" />
        <cc:permits
           rdf:resource="http://creativecommons.org/ns#Distribution" />
        <cc:permits
           rdf:resource="http://creativecommons.org/ns#DerivativeWorks" />
      </cc:License>
    </rdf:RDF>
  </metadata>
</svg>
